<?xml version="1.0" encoding="UTF-8" standalone="no"?><!DOCTYPE svg PUBLIC "-//W3C//DTD SVG 1.1//EN" "http://www.w3.org/Graphics/SVG/1.1/DTD/svg11.dtd"><svg width="100%" height="100%" viewBox="0 0 144 69" version="1.1" xmlns="http://www.w3.org/2000/svg" xmlns:xlink="http://www.w3.org/1999/xlink" xml:space="preserve" style="fill-rule:evenodd;clip-rule:evenodd;stroke-linejoin:round;stroke-miterlimit:1.41421;"><g><g><path d="M36.407,33.147c-1.602,0 -2.901,-1.298 -2.901,-2.9l0,-26.621c0,-1.603 1.299,-2.901 2.901,-2.901c1.601,0 2.901,1.298 2.901,2.901l0,26.621c0,1.602 -1.3,2.9 -2.901,2.9" style="fill:#8e939d;fill-rule:nonzero;"/><path d="M85.913,22.169c-1.603,0 -2.903,-1.297 -2.903,-2.9l0,-15.643c0,-1.603 1.3,-2.901 2.903,-2.901c1.601,0 2.899,1.298 2.899,2.901l0,15.643c0,1.603 -1.298,2.9 -2.899,2.9" style="fill:#8e939d;fill-rule:nonzero;"/><path d="M3.167,48.368c-1.601,0 -2.901,-1.298 -2.901,-2.9l0,-27.32c0,-1.601 1.3,-2.899 2.901,-2.899c1.603,0 2.9,1.298 2.9,2.899l0,27.32c0,1.602 -1.297,2.9 -2.9,2.9" style="fill:#8e939d;fill-rule:nonzero;"/><path d="M36.409,48.368c-0.854,0 -1.7,-0.375 -2.272,-1.095l-33.24,-41.8c-0.998,-1.254 -0.79,-3.079 0.464,-4.076c1.255,-0.998 3.078,-0.787 4.076,0.465l33.239,41.8c0.998,1.255 0.789,3.079 -0.464,4.075c-0.534,0.424 -1.171,0.631 -1.803,0.631" style="fill:#8e939d;fill-rule:nonzero;"/><path d="M125.556,47.641c-1.279,0 -2.45,-0.851 -2.799,-2.145c-0.416,-1.548 0.499,-3.138 2.046,-3.555c7.844,-2.113 13.319,-9.262 13.319,-17.388c0,-8.127 -5.475,-15.277 -13.319,-17.389c-1.547,-0.418 -2.462,-2.009 -2.046,-3.555c0.416,-1.548 2.009,-2.462 3.555,-2.046c10.369,2.792 17.612,12.246 17.612,22.99c0,10.742 -7.243,20.195 -17.612,22.989c-0.253,0.068 -0.505,0.099 -0.756,0.099" style="fill:#8e939d;fill-rule:nonzero;"/><path d="M114.658,47.641c-0.251,0 -0.505,-0.031 -0.758,-0.099c-10.367,-2.794 -17.61,-12.247 -17.61,-22.989c0,-10.744 7.243,-20.198 17.61,-22.99c1.549,-0.418 3.139,0.498 3.556,2.046c0.415,1.546 -0.501,3.137 -2.046,3.555c-7.842,2.112 -13.319,9.262 -13.319,17.389c0,8.126 5.477,15.275 13.319,17.388c1.545,0.417 2.461,2.007 2.046,3.555c-0.349,1.294 -1.52,2.145 -2.798,2.145" style="fill:#8e939d;fill-rule:nonzero;"/><path d="M69.132,48.368c-10.854,0 -19.683,-8.829 -19.683,-19.68l0,-25.062c0,-1.603 1.3,-2.901 2.902,-2.901c1.6,0 2.9,1.298 2.9,2.901l0,25.062c0,7.652 6.226,13.878 13.881,13.878c7.652,0 13.879,-6.226 13.879,-13.878c0,-1.602 1.298,-2.9 2.902,-2.9c1.601,0 2.899,1.298 2.899,2.9c0,10.851 -8.83,19.68 -19.68,19.68" style="fill:#8e939d;fill-rule:nonzero;"/><path d="M3.832,64.302l0,-1.363c0,-0.29 -0.081,-0.517 -0.245,-0.677c-0.16,-0.161 -0.389,-0.242 -0.684,-0.242c-0.341,0 -0.649,0.113 -0.924,0.339l0,2.751c0.318,0.079 0.627,0.116 0.924,0.116c0.295,0 0.524,-0.08 0.684,-0.241c0.164,-0.161 0.245,-0.389 0.245,-0.683m0.981,-1.283l0,1.199c0,0.566 -0.177,1.028 -0.529,1.38c-0.346,0.353 -0.804,0.53 -1.381,0.53c-0.515,0 -1.01,-0.081 -1.487,-0.246c-0.125,-0.044 -0.224,-0.118 -0.303,-0.223c-0.077,-0.105 -0.115,-0.225 -0.115,-0.358l0,-5.539c0,-0.137 0.049,-0.253 0.146,-0.35c0.097,-0.095 0.215,-0.143 0.351,-0.143c0.133,0 0.246,0.048 0.341,0.143c0.095,0.097 0.143,0.213 0.143,0.35l0,1.598c0.356,-0.164 0.686,-0.246 0.989,-0.246c0.548,0 0.99,0.171 1.324,0.516c0.347,0.346 0.521,0.81 0.521,1.389" style="fill:#8e939d;fill-rule:nonzero;"/><path d="M7.371,63.182l1.854,0c0,-0.774 -0.31,-1.162 -0.93,-1.162c-0.615,0 -0.924,0.388 -0.924,1.162m2.217,0.902l-2.217,0c0,0.37 0.063,0.643 0.19,0.817c0.168,0.217 0.412,0.325 0.734,0.325c0.314,0 0.656,-0.082 1.028,-0.246c0.08,-0.034 0.146,-0.051 0.199,-0.051c0.121,0 0.229,0.045 0.324,0.134c0.094,0.091 0.141,0.196 0.141,0.317c0,0.204 -0.082,0.347 -0.246,0.427c-0.446,0.214 -0.928,0.321 -1.446,0.321c-0.566,0 -1.027,-0.177 -1.38,-0.53c-0.349,-0.35 -0.525,-0.811 -0.525,-1.379l0,-1.2c0,-0.564 0.176,-1.021 0.525,-1.371c0.357,-0.356 0.817,-0.534 1.38,-0.534c0.573,0 1.034,0.178 1.381,0.534c0.353,0.353 0.529,0.811 0.529,1.371l0,0.446c0,0.171 -0.059,0.316 -0.178,0.436c-0.12,0.122 -0.265,0.183 -0.439,0.183" style="fill:#8e939d;fill-rule:nonzero;"/><path d="M11.908,64.646l0,-4.884c0,-0.137 0.05,-0.253 0.146,-0.35c0.098,-0.095 0.215,-0.143 0.352,-0.143c0.134,0 0.247,0.048 0.342,0.143c0.094,0.097 0.141,0.213 0.141,0.35l0,1.449l0.925,0c0.137,0 0.252,0.044 0.349,0.132c0.095,0.089 0.143,0.2 0.143,0.333c0,0.139 -0.045,0.252 -0.138,0.341c-0.094,0.089 -0.212,0.133 -0.354,0.133l-0.925,0l0,2.486c0,0.176 0.041,0.319 0.123,0.428c0.082,0.108 0.186,0.162 0.314,0.162c0.099,0 0.195,-0.012 0.288,-0.036c0.093,-0.026 0.165,-0.038 0.218,-0.038c0.127,0 0.239,0.042 0.332,0.125c0.095,0.084 0.142,0.194 0.142,0.331c0,0.114 -0.04,0.214 -0.118,0.3c-0.079,0.085 -0.18,0.14 -0.299,0.163c-0.19,0.038 -0.378,0.057 -0.563,0.057c-0.397,0 -0.732,-0.138 -1.006,-0.418c-0.275,-0.279 -0.412,-0.634 -0.412,-1.064" style="fill:#8e939d;fill-rule:nonzero;"/><path d="M15.837,64.646l0,-4.884c0,-0.137 0.049,-0.253 0.147,-0.35c0.098,-0.095 0.214,-0.143 0.35,-0.143c0.134,0 0.247,0.048 0.343,0.143c0.094,0.097 0.14,0.213 0.14,0.35l0,1.449l0.925,0c0.136,0 0.254,0.044 0.349,0.132c0.095,0.089 0.144,0.2 0.144,0.333c0,0.139 -0.046,0.252 -0.139,0.341c-0.093,0.089 -0.211,0.133 -0.354,0.133l-0.925,0l0,2.486c0,0.176 0.042,0.319 0.124,0.428c0.082,0.108 0.185,0.162 0.314,0.162c0.099,0 0.195,-0.012 0.288,-0.036c0.093,-0.026 0.165,-0.038 0.219,-0.038c0.126,0 0.237,0.042 0.332,0.125c0.094,0.084 0.141,0.194 0.141,0.331c0,0.114 -0.04,0.214 -0.119,0.3c-0.078,0.085 -0.179,0.14 -0.299,0.163c-0.189,0.038 -0.376,0.057 -0.562,0.057c-0.397,0 -0.733,-0.138 -1.006,-0.418c-0.275,-0.279 -0.412,-0.634 -0.412,-1.064" style="fill:#8e939d;fill-rule:nonzero;"/><path d="M20.575,63.182l1.854,0c0,-0.774 -0.31,-1.162 -0.93,-1.162c-0.616,0 -0.924,0.388 -0.924,1.162m2.217,0.902l-2.217,0c0,0.37 0.064,0.643 0.19,0.817c0.167,0.217 0.413,0.325 0.734,0.325c0.314,0 0.656,-0.082 1.028,-0.246c0.08,-0.034 0.147,-0.051 0.199,-0.051c0.121,0 0.228,0.045 0.323,0.134c0.094,0.091 0.141,0.196 0.141,0.317c0,0.204 -0.081,0.347 -0.245,0.427c-0.447,0.214 -0.928,0.321 -1.446,0.321c-0.567,0 -1.027,-0.177 -1.381,-0.53c-0.349,-0.35 -0.524,-0.811 -0.524,-1.379l0,-1.2c0,-0.564 0.175,-1.021 0.524,-1.371c0.357,-0.356 0.817,-0.534 1.381,-0.534c0.574,0 1.033,0.178 1.381,0.534c0.353,0.353 0.528,0.811 0.528,1.371l0,0.446c0,0.171 -0.058,0.316 -0.178,0.436c-0.119,0.122 -0.265,0.183 -0.438,0.183" style="fill:#8e939d;fill-rule:nonzero;"/><path d="M25.112,65.636l0,-3.105c0,-0.402 0.136,-0.74 0.406,-1.011c0.272,-0.271 0.61,-0.407 1.012,-0.407c0.207,0 0.446,0.027 0.715,0.08c0.115,0.025 0.209,0.079 0.281,0.164c0.073,0.086 0.11,0.186 0.11,0.301c0,0.129 -0.044,0.237 -0.132,0.324c-0.089,0.087 -0.201,0.13 -0.338,0.13c-0.056,0 -0.108,-0.005 -0.157,-0.017c-0.206,-0.05 -0.365,-0.075 -0.479,-0.075c-0.118,0 -0.221,0.043 -0.308,0.13c-0.086,0.087 -0.13,0.189 -0.13,0.307l0,3.179c0,0.136 -0.047,0.251 -0.141,0.348c-0.095,0.095 -0.208,0.144 -0.342,0.144c-0.136,0 -0.252,-0.049 -0.351,-0.144c-0.096,-0.097 -0.146,-0.212 -0.146,-0.348" style="fill:#8e939d;fill-rule:nonzero;"/><path d="M32.096,64.646l0,-4.884c0,-0.137 0.049,-0.253 0.146,-0.35c0.099,-0.095 0.215,-0.143 0.351,-0.143c0.133,0 0.247,0.048 0.342,0.143c0.094,0.097 0.142,0.213 0.142,0.35l0,1.449l0.924,0c0.136,0 0.253,0.044 0.349,0.132c0.097,0.089 0.144,0.2 0.144,0.333c0,0.139 -0.046,0.252 -0.139,0.341c-0.093,0.089 -0.212,0.133 -0.354,0.133l-0.924,0l0,2.486c0,0.176 0.04,0.319 0.123,0.428c0.082,0.108 0.186,0.162 0.314,0.162c0.098,0 0.194,-0.012 0.287,-0.036c0.092,-0.026 0.167,-0.038 0.219,-0.038c0.127,0 0.237,0.042 0.333,0.125c0.094,0.084 0.141,0.194 0.141,0.331c0,0.114 -0.04,0.214 -0.118,0.3c-0.08,0.085 -0.179,0.14 -0.3,0.163c-0.189,0.038 -0.377,0.057 -0.562,0.057c-0.398,0 -0.733,-0.138 -1.006,-0.418c-0.274,-0.279 -0.412,-0.634 -0.412,-1.064" style="fill:#8e939d;fill-rule:nonzero;"/><path d="M36.834,63.182l1.854,0c0,-0.774 -0.31,-1.162 -0.93,-1.162c-0.616,0 -0.924,0.388 -0.924,1.162m2.216,0.902l-2.216,0c0,0.37 0.063,0.643 0.19,0.817c0.168,0.217 0.412,0.325 0.734,0.325c0.313,0 0.655,-0.082 1.028,-0.246c0.08,-0.034 0.146,-0.051 0.198,-0.051c0.122,0 0.229,0.045 0.324,0.134c0.094,0.091 0.142,0.196 0.142,0.317c0,0.204 -0.083,0.347 -0.247,0.427c-0.446,0.214 -0.928,0.321 -1.445,0.321c-0.566,0 -1.028,-0.177 -1.381,-0.53c-0.349,-0.35 -0.524,-0.811 -0.524,-1.379l0,-1.2c0,-0.564 0.175,-1.021 0.524,-1.371c0.357,-0.356 0.818,-0.534 1.381,-0.534c0.573,0 1.033,0.178 1.381,0.534c0.353,0.353 0.528,0.811 0.528,1.371l0,0.446c0,0.171 -0.058,0.316 -0.178,0.436c-0.12,0.122 -0.265,0.183 -0.439,0.183" style="fill:#8e939d;fill-rule:nonzero;"/><path d="M41.199,64.218l0,-1.199c0,-0.563 0.174,-1.02 0.525,-1.371c0.356,-0.356 0.816,-0.535 1.38,-0.535c0.461,0 0.901,0.103 1.32,0.307c0.186,0.087 0.278,0.232 0.278,0.438c0,0.119 -0.045,0.225 -0.137,0.313c-0.091,0.089 -0.201,0.132 -0.332,0.132c-0.065,0 -0.141,-0.018 -0.228,-0.055c-0.332,-0.152 -0.631,-0.227 -0.901,-0.227c-0.291,0 -0.518,0.08 -0.681,0.241c-0.163,0.161 -0.244,0.387 -0.244,0.678l0,1.352c0,0.295 0.081,0.522 0.244,0.683c0.163,0.162 0.39,0.243 0.681,0.243c0.297,0 0.607,-0.08 0.93,-0.239c0.058,-0.033 0.129,-0.05 0.213,-0.05c0.121,0 0.227,0.044 0.318,0.132c0.092,0.09 0.137,0.198 0.137,0.328c0,0.093 -0.025,0.179 -0.076,0.258c-0.051,0.08 -0.121,0.138 -0.212,0.179c-0.411,0.201 -0.849,0.302 -1.31,0.302c-0.567,0 -1.027,-0.176 -1.38,-0.529c-0.351,-0.351 -0.525,-0.811 -0.525,-1.381" style="fill:#8e939d;fill-rule:nonzero;"/><path d="M49.068,65.636l0,-2.697c0,-0.29 -0.08,-0.517 -0.244,-0.677c-0.162,-0.161 -0.391,-0.242 -0.685,-0.242c-0.341,0 -0.649,0.113 -0.925,0.339l0,3.277c0,0.136 -0.048,0.251 -0.141,0.348c-0.096,0.095 -0.209,0.144 -0.342,0.144c-0.136,0 -0.253,-0.049 -0.351,-0.144c-0.097,-0.097 -0.146,-0.212 -0.146,-0.348l0,-5.874c0,-0.137 0.049,-0.253 0.146,-0.35c0.098,-0.095 0.215,-0.144 0.351,-0.144c0.133,0 0.246,0.049 0.342,0.144c0.093,0.097 0.141,0.213 0.141,0.35l0,1.598c0.356,-0.164 0.686,-0.247 0.991,-0.247c0.538,0 0.979,0.173 1.323,0.517c0.346,0.346 0.52,0.81 0.52,1.389l0,2.617c0,0.136 -0.047,0.251 -0.144,0.348c-0.095,0.095 -0.212,0.144 -0.348,0.144c-0.136,0 -0.252,-0.049 -0.346,-0.144c-0.094,-0.097 -0.142,-0.212 -0.142,-0.348" style="fill:#8e939d;fill-rule:nonzero;"/><path d="M54.721,65.636l0,-2.697c0,-0.29 -0.081,-0.517 -0.244,-0.677c-0.163,-0.161 -0.391,-0.242 -0.686,-0.242c-0.3,0 -0.609,0.04 -0.924,0.12l0,3.496c0,0.136 -0.047,0.251 -0.141,0.348c-0.096,0.095 -0.209,0.144 -0.343,0.144c-0.136,0 -0.252,-0.049 -0.351,-0.144c-0.096,-0.097 -0.145,-0.212 -0.145,-0.348l0,-3.695c0,-0.133 0.037,-0.253 0.114,-0.361c0.076,-0.106 0.176,-0.18 0.304,-0.22c0.467,-0.164 0.963,-0.247 1.486,-0.247c0.573,0 1.034,0.178 1.381,0.535c0.353,0.353 0.53,0.811 0.53,1.371l0,2.617c0,0.136 -0.048,0.251 -0.144,0.348c-0.097,0.095 -0.213,0.144 -0.349,0.144c-0.136,0 -0.251,-0.049 -0.346,-0.144c-0.095,-0.097 -0.142,-0.212 -0.142,-0.348" style="fill:#8e939d;fill-rule:nonzero;"/><path d="M60.383,64.218l0,-1.18c0,-0.304 -0.092,-0.549 -0.277,-0.737c-0.183,-0.187 -0.43,-0.28 -0.741,-0.28c-0.321,0 -0.571,0.088 -0.75,0.266c-0.179,0.178 -0.267,0.428 -0.267,0.751l0,1.18c0,0.319 0.088,0.566 0.267,0.744c0.179,0.176 0.429,0.264 0.75,0.264c0.323,0 0.573,-0.088 0.751,-0.264c0.179,-0.178 0.267,-0.425 0.267,-0.744m0.981,-1.106l0,1.018c0,0.6 -0.183,1.084 -0.548,1.45c-0.366,0.365 -0.85,0.548 -1.451,0.548c-0.597,0 -1.079,-0.183 -1.445,-0.548c-0.368,-0.369 -0.553,-0.853 -0.553,-1.45l0,-1.018c0,-0.594 0.185,-1.076 0.553,-1.445c0.369,-0.369 0.851,-0.554 1.445,-0.554c0.598,0 1.082,0.185 1.451,0.554c0.365,0.365 0.548,0.848 0.548,1.445" style="fill:#8e939d;fill-rule:nonzero;"/><path d="M63.114,65.636l0,-5.874c0,-0.137 0.048,-0.253 0.146,-0.35c0.098,-0.095 0.214,-0.144 0.351,-0.144c0.132,0 0.247,0.049 0.341,0.144c0.094,0.097 0.141,0.213 0.141,0.35l0,5.874c0,0.136 -0.047,0.251 -0.141,0.348c-0.094,0.095 -0.209,0.144 -0.341,0.144c-0.137,0 -0.253,-0.049 -0.351,-0.144c-0.098,-0.097 -0.146,-0.212 -0.146,-0.348" style="fill:#8e939d;fill-rule:nonzero;"/><path d="M68.859,64.218l0,-1.18c0,-0.304 -0.093,-0.549 -0.276,-0.737c-0.185,-0.187 -0.432,-0.28 -0.742,-0.28c-0.322,0 -0.572,0.088 -0.751,0.266c-0.178,0.178 -0.266,0.428 -0.266,0.751l0,1.18c0,0.319 0.088,0.566 0.266,0.744c0.179,0.176 0.429,0.264 0.751,0.264c0.323,0 0.572,-0.088 0.75,-0.264c0.179,-0.178 0.268,-0.425 0.268,-0.744m0.981,-1.106l0,1.018c0,0.6 -0.183,1.084 -0.548,1.45c-0.366,0.365 -0.85,0.548 -1.451,0.548c-0.598,0 -1.079,-0.183 -1.445,-0.548c-0.368,-0.369 -0.553,-0.853 -0.553,-1.45l0,-1.018c0,-0.594 0.185,-1.076 0.553,-1.445c0.369,-0.369 0.851,-0.554 1.445,-0.554c0.598,0 1.082,0.185 1.451,0.554c0.365,0.365 0.548,0.848 0.548,1.445" style="fill:#8e939d;fill-rule:nonzero;"/><path d="M74.206,64.883l0,-2.743c-0.316,-0.08 -0.626,-0.12 -0.93,-0.12c-0.291,0 -0.518,0.081 -0.681,0.242c-0.163,0.16 -0.244,0.387 -0.244,0.677l0,1.363c0,0.294 0.081,0.522 0.244,0.683c0.163,0.16 0.39,0.241 0.681,0.241c0.35,0 0.66,-0.114 0.93,-0.343m0,1.371l0,-0.372c-0.323,0.165 -0.632,0.246 -0.93,0.246c-0.567,0 -1.027,-0.177 -1.381,-0.53c-0.35,-0.349 -0.524,-0.811 -0.524,-1.38l0,-1.199c0,-0.564 0.174,-1.021 0.524,-1.371c0.357,-0.356 0.817,-0.534 1.381,-0.534c0.517,0 1.015,0.082 1.492,0.246c0.123,0.043 0.224,0.118 0.301,0.223c0.078,0.106 0.116,0.224 0.116,0.358l0,4.313c0,0.561 -0.176,1.017 -0.528,1.37c-0.348,0.356 -0.807,0.535 -1.381,0.535c-0.487,0 -0.947,-0.099 -1.381,-0.297c-0.198,-0.094 -0.296,-0.24 -0.296,-0.438c0,-0.124 0.046,-0.23 0.139,-0.321c0.092,-0.09 0.206,-0.134 0.339,-0.134c0.059,0 0.132,0.019 0.218,0.056c0.356,0.152 0.684,0.228 0.981,0.228c0.288,0 0.516,-0.092 0.68,-0.277c0.167,-0.184 0.25,-0.425 0.25,-0.722" style="fill:#8e939d;fill-rule:nonzero;"/><path d="M78.013,66.625l0.237,-0.781l-1.571,-4.061c-0.025,-0.074 -0.037,-0.135 -0.037,-0.181c0,-0.124 0.05,-0.236 0.152,-0.337c0.1,-0.101 0.218,-0.151 0.35,-0.151c0.103,0 0.195,0.029 0.278,0.086c0.084,0.057 0.142,0.134 0.173,0.23l1.138,3.132l0.981,-3.114c0.031,-0.099 0.09,-0.18 0.176,-0.242c0.087,-0.062 0.182,-0.092 0.284,-0.092c0.13,0 0.247,0.048 0.348,0.143c0.103,0.097 0.154,0.214 0.154,0.354c0,0.053 -0.009,0.103 -0.028,0.148l-1.7,5.094c-0.131,0.397 -0.357,0.713 -0.679,0.95c-0.323,0.238 -0.707,0.356 -1.153,0.356c-0.133,0 -0.247,-0.045 -0.341,-0.133c-0.095,-0.088 -0.142,-0.2 -0.142,-0.336c0,-0.125 0.046,-0.23 0.136,-0.316c0.092,-0.087 0.202,-0.134 0.329,-0.14c0.486,-0.022 0.791,-0.224 0.915,-0.609" style="fill:#8e939d;fill-rule:nonzero;"/><path d="M81.872,66.109c-0.17,0 -0.316,-0.06 -0.437,-0.181c-0.121,-0.121 -0.181,-0.266 -0.181,-0.436c0,-0.168 0.06,-0.311 0.181,-0.43c0.121,-0.12 0.267,-0.179 0.437,-0.179c0.167,0 0.31,0.059 0.43,0.179c0.12,0.119 0.179,0.262 0.179,0.43c0,0.17 -0.059,0.315 -0.179,0.436c-0.12,0.121 -0.263,0.181 -0.43,0.181" style="fill:#8e939d;fill-rule:nonzero;"/><path d="M89.642,64.302l0,-1.363c0,-0.29 -0.081,-0.517 -0.244,-0.677c-0.163,-0.161 -0.392,-0.242 -0.686,-0.242c-0.341,0 -0.65,0.113 -0.924,0.339l0,2.751c0.319,0.079 0.626,0.116 0.924,0.116c0.294,0 0.523,-0.08 0.686,-0.241c0.163,-0.161 0.244,-0.389 0.244,-0.683m0.98,-1.283l0,1.199c0,0.566 -0.176,1.028 -0.53,1.38c-0.344,0.353 -0.803,0.53 -1.38,0.53c-0.514,0 -1.01,-0.081 -1.486,-0.246c-0.124,-0.044 -0.226,-0.118 -0.303,-0.223c-0.077,-0.105 -0.117,-0.225 -0.117,-0.358l0,-5.539c0,-0.137 0.049,-0.253 0.147,-0.35c0.098,-0.095 0.215,-0.143 0.351,-0.143c0.133,0 0.247,0.048 0.342,0.143c0.094,0.097 0.142,0.213 0.142,0.35l0,1.598c0.356,-0.164 0.685,-0.246 0.99,-0.246c0.548,0 0.989,0.171 1.324,0.516c0.347,0.346 0.52,0.81 0.52,1.389" style="fill:#8e939d;fill-rule:nonzero;"/><path d="M93.18,63.182l1.854,0c0,-0.774 -0.31,-1.162 -0.929,-1.162c-0.616,0 -0.925,0.388 -0.925,1.162m2.217,0.902l-2.217,0c0,0.37 0.064,0.643 0.191,0.817c0.167,0.217 0.411,0.325 0.734,0.325c0.313,0 0.655,-0.082 1.027,-0.246c0.08,-0.034 0.146,-0.051 0.2,-0.051c0.12,0 0.228,0.045 0.322,0.134c0.095,0.091 0.142,0.196 0.142,0.317c0,0.204 -0.082,0.347 -0.247,0.427c-0.445,0.214 -0.927,0.321 -1.444,0.321c-0.567,0 -1.028,-0.177 -1.381,-0.53c-0.35,-0.35 -0.524,-0.811 -0.524,-1.379l0,-1.2c0,-0.564 0.174,-1.021 0.524,-1.371c0.357,-0.356 0.817,-0.534 1.381,-0.534c0.573,0 1.033,0.178 1.38,0.534c0.353,0.353 0.53,0.811 0.53,1.371l0,0.446c0,0.171 -0.059,0.316 -0.179,0.436c-0.119,0.122 -0.265,0.183 -0.439,0.183" style="fill:#8e939d;fill-rule:nonzero;"/><path d="M97.718,64.646l0,-4.884c0,-0.137 0.048,-0.253 0.146,-0.35c0.099,-0.095 0.214,-0.143 0.35,-0.143c0.134,0 0.248,0.048 0.343,0.143c0.093,0.097 0.141,0.213 0.141,0.35l0,1.449l0.925,0c0.136,0 0.252,0.044 0.349,0.132c0.096,0.089 0.144,0.2 0.144,0.333c0,0.139 -0.047,0.252 -0.14,0.341c-0.092,0.089 -0.211,0.133 -0.353,0.133l-0.925,0l0,2.486c0,0.176 0.041,0.319 0.124,0.428c0.082,0.108 0.186,0.162 0.313,0.162c0.099,0 0.194,-0.012 0.288,-0.036c0.092,-0.026 0.166,-0.038 0.218,-0.038c0.128,0 0.238,0.042 0.333,0.125c0.095,0.084 0.142,0.194 0.142,0.331c0,0.114 -0.041,0.214 -0.119,0.3c-0.08,0.085 -0.179,0.14 -0.3,0.163c-0.189,0.038 -0.376,0.057 -0.562,0.057c-0.397,0 -0.732,-0.138 -1.005,-0.418c-0.275,-0.279 -0.412,-0.634 -0.412,-1.064" style="fill:#8e939d;fill-rule:nonzero;"/><path d="M101.646,64.646l0,-4.884c0,-0.137 0.048,-0.253 0.146,-0.35c0.099,-0.095 0.215,-0.143 0.352,-0.143c0.132,0 0.246,0.048 0.342,0.143c0.093,0.097 0.141,0.213 0.141,0.35l0,1.449l0.925,0c0.137,0 0.252,0.044 0.349,0.132c0.095,0.089 0.143,0.2 0.143,0.333c0,0.139 -0.046,0.252 -0.139,0.341c-0.093,0.089 -0.211,0.133 -0.353,0.133l-0.925,0l0,2.486c0,0.176 0.04,0.319 0.123,0.428c0.082,0.108 0.186,0.162 0.314,0.162c0.098,0 0.195,-0.012 0.288,-0.036c0.093,-0.026 0.166,-0.038 0.218,-0.038c0.127,0 0.238,0.042 0.333,0.125c0.094,0.084 0.141,0.194 0.141,0.331c0,0.114 -0.039,0.214 -0.118,0.3c-0.079,0.085 -0.179,0.14 -0.3,0.163c-0.189,0.038 -0.377,0.057 -0.562,0.057c-0.397,0 -0.733,-0.138 -1.006,-0.418c-0.275,-0.279 -0.412,-0.634 -0.412,-1.064" style="fill:#8e939d;fill-rule:nonzero;"/><path d="M106.384,63.182l1.855,0c0,-0.774 -0.31,-1.162 -0.93,-1.162c-0.617,0 -0.925,0.388 -0.925,1.162m2.217,0.902l-2.217,0c0,0.37 0.063,0.643 0.191,0.817c0.167,0.217 0.411,0.325 0.734,0.325c0.312,0 0.655,-0.082 1.027,-0.246c0.081,-0.034 0.146,-0.051 0.199,-0.051c0.121,0 0.229,0.045 0.323,0.134c0.094,0.091 0.143,0.196 0.143,0.317c0,0.204 -0.083,0.347 -0.247,0.427c-0.447,0.214 -0.928,0.321 -1.445,0.321c-0.567,0 -1.028,-0.177 -1.38,-0.53c-0.351,-0.35 -0.526,-0.811 -0.526,-1.379l0,-1.2c0,-0.564 0.175,-1.021 0.526,-1.371c0.355,-0.356 0.816,-0.534 1.38,-0.534c0.572,0 1.033,0.178 1.38,0.534c0.353,0.353 0.53,0.811 0.53,1.371l0,0.446c0,0.171 -0.06,0.316 -0.18,0.436c-0.119,0.122 -0.265,0.183 -0.438,0.183" style="fill:#8e939d;fill-rule:nonzero;"/><path d="M110.921,65.636l0,-3.105c0,-0.402 0.136,-0.74 0.407,-1.011c0.27,-0.271 0.608,-0.407 1.011,-0.407c0.207,0 0.447,0.027 0.715,0.08c0.114,0.025 0.209,0.079 0.281,0.164c0.073,0.086 0.109,0.186 0.109,0.301c0,0.129 -0.044,0.237 -0.132,0.324c-0.089,0.087 -0.2,0.13 -0.336,0.13c-0.056,0 -0.109,-0.005 -0.159,-0.017c-0.205,-0.05 -0.364,-0.075 -0.478,-0.075c-0.119,0 -0.221,0.043 -0.308,0.13c-0.087,0.087 -0.13,0.189 -0.13,0.307l0,3.179c0,0.136 -0.047,0.251 -0.142,0.348c-0.094,0.095 -0.208,0.144 -0.341,0.144c-0.137,0 -0.253,-0.049 -0.351,-0.144c-0.097,-0.097 -0.146,-0.212 -0.146,-0.348" style="fill:#8e939d;fill-rule:nonzero;"/><path d="M121.2,65.728l-0.791,-2.727l-0.788,2.718c-0.035,0.117 -0.102,0.216 -0.201,0.293c-0.099,0.077 -0.211,0.116 -0.334,0.116c-0.121,0 -0.231,-0.036 -0.328,-0.107c-0.098,-0.071 -0.165,-0.165 -0.202,-0.278l-1.269,-3.992c-0.012,-0.031 -0.019,-0.079 -0.019,-0.14c0,-0.133 0.047,-0.25 0.14,-0.349c0.092,-0.098 0.209,-0.148 0.348,-0.148c0.109,0 0.207,0.032 0.298,0.095c0.09,0.063 0.148,0.146 0.176,0.249l0.847,2.895l0.799,-2.83c0.034,-0.119 0.1,-0.216 0.199,-0.293c0.099,-0.077 0.211,-0.116 0.334,-0.116c0.119,0 0.228,0.041 0.333,0.125c0.104,0.084 0.168,0.172 0.194,0.265l0.799,2.849l0.844,-2.895c0.029,-0.103 0.087,-0.186 0.178,-0.249c0.089,-0.063 0.188,-0.095 0.297,-0.095c0.131,0 0.243,0.048 0.341,0.143c0.098,0.097 0.147,0.214 0.147,0.354c0,0.061 -0.006,0.109 -0.019,0.14l-1.268,3.977c-0.037,0.119 -0.105,0.213 -0.199,0.289c-0.097,0.074 -0.205,0.111 -0.321,0.111c-0.121,0 -0.232,-0.038 -0.333,-0.114c-0.101,-0.075 -0.168,-0.171 -0.202,-0.286" style="fill:#8e939d;fill-rule:nonzero;"/><path d="M127.876,64.218l0,-1.18c0,-0.304 -0.093,-0.549 -0.277,-0.737c-0.185,-0.187 -0.432,-0.28 -0.741,-0.28c-0.323,0 -0.573,0.088 -0.752,0.266c-0.177,0.178 -0.267,0.428 -0.267,0.751l0,1.18c0,0.319 0.09,0.566 0.267,0.744c0.179,0.176 0.429,0.264 0.752,0.264c0.322,0 0.572,-0.088 0.75,-0.264c0.178,-0.178 0.268,-0.425 0.268,-0.744m0.979,-1.106l0,1.018c0,0.6 -0.182,1.084 -0.547,1.45c-0.366,0.365 -0.85,0.548 -1.45,0.548c-0.598,0 -1.081,-0.183 -1.446,-0.548c-0.369,-0.369 -0.553,-0.853 -0.553,-1.45l0,-1.018c0,-0.594 0.184,-1.076 0.553,-1.445c0.368,-0.369 0.851,-0.554 1.446,-0.554c0.597,0 1.081,0.185 1.45,0.554c0.365,0.365 0.547,0.848 0.547,1.445" style="fill:#8e939d;fill-rule:nonzero;"/><path d="M130.558,65.636l0,-3.105c0,-0.402 0.136,-0.74 0.406,-1.011c0.272,-0.271 0.609,-0.407 1.012,-0.407c0.207,0 0.446,0.027 0.715,0.08c0.115,0.025 0.208,0.079 0.281,0.164c0.074,0.086 0.11,0.186 0.11,0.301c0,0.129 -0.045,0.237 -0.132,0.324c-0.089,0.087 -0.201,0.13 -0.338,0.13c-0.055,0 -0.108,-0.005 -0.158,-0.017c-0.205,-0.05 -0.364,-0.075 -0.478,-0.075c-0.118,0 -0.221,0.043 -0.307,0.13c-0.086,0.087 -0.13,0.189 -0.13,0.307l0,3.179c0,0.136 -0.048,0.251 -0.141,0.348c-0.096,0.095 -0.21,0.144 -0.342,0.144c-0.136,0 -0.253,-0.049 -0.353,-0.144c-0.095,-0.097 -0.145,-0.212 -0.145,-0.348" style="fill:#8e939d;fill-rule:nonzero;"/><path d="M134.533,65.636l0,-5.874c0,-0.137 0.049,-0.253 0.147,-0.35c0.098,-0.095 0.214,-0.144 0.351,-0.144c0.133,0 0.247,0.049 0.341,0.144c0.094,0.097 0.142,0.213 0.142,0.35l0,5.874c0,0.136 -0.048,0.251 -0.142,0.348c-0.094,0.095 -0.208,0.144 -0.341,0.144c-0.137,0 -0.253,-0.049 -0.351,-0.144c-0.098,-0.097 -0.147,-0.212 -0.147,-0.348" style="fill:#8e939d;fill-rule:nonzero;"/><path d="M140.098,65.101l0,-2.743c-0.263,-0.225 -0.572,-0.338 -0.93,-0.338c-0.29,0 -0.517,0.081 -0.679,0.242c-0.164,0.161 -0.245,0.387 -0.245,0.677l0,1.363c0,0.293 0.081,0.522 0.245,0.682c0.162,0.162 0.389,0.242 0.679,0.242c0.329,0 0.64,-0.041 0.93,-0.125m-2.834,-0.883l0,-1.199c0,-0.576 0.172,-1.037 0.515,-1.38c0.351,-0.351 0.813,-0.526 1.389,-0.526c0.308,0 0.618,0.082 0.93,0.247l0,-1.598c0,-0.137 0.047,-0.253 0.141,-0.35c0.096,-0.095 0.211,-0.143 0.347,-0.143c0.137,0 0.252,0.048 0.349,0.143c0.096,0.097 0.144,0.213 0.144,0.35l0,5.538c0,0.135 -0.04,0.254 -0.116,0.359c-0.077,0.105 -0.179,0.179 -0.303,0.222c-0.476,0.166 -0.974,0.247 -1.492,0.247c-0.566,0 -1.026,-0.176 -1.379,-0.53c-0.35,-0.35 -0.525,-0.81 -0.525,-1.38" style="fill:#8e939d;fill-rule:nonzero;"/><path d="M143.316,66.109c-0.17,0 -0.316,-0.06 -0.437,-0.181c-0.12,-0.121 -0.18,-0.266 -0.18,-0.436c0,-0.168 0.06,-0.311 0.18,-0.43c0.121,-0.12 0.267,-0.179 0.437,-0.179c0.167,0 0.311,0.059 0.43,0.179c0.119,0.119 0.178,0.262 0.178,0.43c0,0.17 -0.059,0.315 -0.178,0.436c-0.119,0.121 -0.263,0.181 -0.43,0.181" style="fill:#8e939d;fill-rule:nonzero;"/></g></g></svg>