<?xml version="1.0" encoding="UTF-8" standalone="no"?><!DOCTYPE svg PUBLIC "-//W3C//DTD SVG 1.1//EN" "http://www.w3.org/Graphics/SVG/1.1/DTD/svg11.dtd"><svg width="100%" height="100%" viewBox="0 0 167 35" version="1.1" xmlns="http://www.w3.org/2000/svg" xmlns:xlink="http://www.w3.org/1999/xlink" xml:space="preserve" style="fill-rule:evenodd;clip-rule:evenodd;stroke-linejoin:round;stroke-miterlimit:1.41421;"><g><g><path d="M44.688,5.715c-2.14,0 -3.714,1.159 -3.714,2.971c0,1.53 0.847,2.481 3.149,3.194c1.5,0.461 1.887,0.802 1.887,1.56c0,0.787 -0.624,1.263 -1.634,1.263c-1.025,0 -1.842,-0.372 -2.6,-1.011l-1.233,1.352c0.847,0.817 2.124,1.471 3.907,1.471c2.57,0 4.085,-1.337 4.085,-3.253c0,-1.902 -1.114,-2.704 -3.06,-3.328c-1.604,-0.505 -1.991,-0.772 -1.991,-1.426c0,-0.654 0.535,-1.01 1.382,-1.01c0.832,0 1.545,0.282 2.258,0.861l1.129,-1.322c-0.906,-0.861 -1.991,-1.322 -3.565,-1.322Z" style="fill:#fff;fill-rule:nonzero;"/><rect x="49.872" y="5.968" width="2.436" height="10.295" style="fill:#fff;fill-rule:nonzero;"/><path d="M57.537,5.715c-2.139,0 -3.714,1.159 -3.714,2.971c0,1.53 0.847,2.481 3.15,3.194c1.5,0.461 1.886,0.802 1.886,1.56c0,0.787 -0.624,1.263 -1.634,1.263c-1.025,0 -1.842,-0.372 -2.599,-1.011l-1.233,1.352c0.846,0.817 2.124,1.471 3.907,1.471c2.569,0 4.085,-1.337 4.085,-3.253c0,-1.902 -1.114,-2.704 -3.06,-3.328c-1.605,-0.505 -1.991,-0.772 -1.991,-1.426c0,-0.654 0.535,-1.01 1.381,-1.01c0.832,0 1.545,0.282 2.258,0.861l1.129,-1.322c-0.906,-0.861 -1.99,-1.322 -3.565,-1.322Z" style="fill:#fff;fill-rule:nonzero;"/><path d="M69.614,5.968l-7.873,0l0,1.871l2.659,0l0,8.423l2.437,0l0,-8.423l2.54,0l0.237,-1.871Z" style="fill:#fff;fill-rule:nonzero;"/><path d="M76.908,5.968l-6.313,0l0,10.294l6.313,0l0,-1.753l-3.877,0l0,-2.629l3.164,0l0,-1.708l-3.164,0l0,-2.466l3.625,0l0.252,-1.738Z" style="fill:#fff;fill-rule:nonzero;"/><path d="M87.856,5.968l-3.089,0l-1.441,6.982l-1.545,-6.982l-3.075,0l-0.773,10.294l2.377,0l0.178,-3.996c0.06,-1.441 0.06,-2.718 -0.044,-4.233l1.693,7.145l2.303,0l1.589,-7.145c-0.074,1.277 -0.044,2.763 0.03,4.204l0.178,4.025l2.392,0l-0.773,-10.294Z" style="fill:#fff;fill-rule:nonzero;"/><path d="M95.611,16.262l2.585,0l-3.105,-10.294l-2.956,0l-3.105,10.294l2.525,0l0.52,-2.213l3.016,0l0.52,2.213Zm-3.12,-3.981l1.085,-4.546l1.084,4.546l-2.169,0Z" style="fill:#fff;fill-rule:nonzero;"/><rect x="102.474" y="5.968" width="2.436" height="10.295" style="fill:#fff;fill-rule:nonzero;"/><path d="M114.759,5.968l-2.184,0l0,4.159c0,1.649 0.193,3.001 0.327,3.833l-3.045,-7.992l-3.031,0l0,10.294l2.169,0l0,-3.773c0,-1.901 -0.193,-3.268 -0.312,-4.204l2.971,7.977l3.105,0l0,-10.294Z" style="fill:#fff;fill-rule:nonzero;"/><path d="M123.717,5.968l-7.874,0l0,1.871l2.66,0l0,8.423l2.436,0l0,-8.423l2.54,0l0.238,-1.871Z" style="fill:#fff;fill-rule:nonzero;"/><path d="M131.01,5.968l-6.313,0l0,10.294l6.313,0l0,-1.753l-3.877,0l0,-2.629l3.164,0l0,-1.708l-3.164,0l0,-2.466l3.625,0l0.252,-1.738Z" style="fill:#fff;fill-rule:nonzero;"/><path d="M136.953,5.715c-2.734,0 -4.918,1.902 -4.918,5.393c0,3.52 1.575,5.407 4.68,5.407c1.352,0 2.689,-0.401 3.743,-1.085l0,-5.095l-3.936,0l0.237,1.723l1.337,0l0,2.333c-0.43,0.237 -0.891,0.341 -1.396,0.341c-1.426,0 -2.139,-0.921 -2.139,-3.624c0,-2.555 1.069,-3.625 2.51,-3.625c0.832,0 1.397,0.252 2.065,0.817l1.263,-1.322c-0.847,-0.743 -1.961,-1.263 -3.446,-1.263Z" style="fill:#fff;fill-rule:nonzero;"/><path d="M147.589,16.262l2.748,0l-2.615,-4.382c1.337,-0.624 1.976,-1.426 1.976,-2.778c0,-2.139 -1.441,-3.134 -4.234,-3.134l-3.372,0l0,10.294l2.437,0l0,-3.936l0.95,0l2.11,3.936Zm-3.06,-8.586l0.876,0c1.203,0 1.783,0.431 1.783,1.426c0,1.085 -0.565,1.545 -1.634,1.545l-1.025,0l0,-2.971Z" style="fill:#fff;fill-rule:nonzero;"/><path d="M156.68,16.262l2.585,0l-3.105,-10.294l-2.956,0l-3.105,10.294l2.526,0l0.52,-2.213l3.015,0l0.52,2.213Zm-3.119,-3.981l1.084,-4.546l1.084,4.546l-2.168,0Z" style="fill:#fff;fill-rule:nonzero;"/><path d="M162.459,5.968l-2.437,0l0,10.294l6.195,0l0.253,-1.931l-4.011,0l0,-8.363Z" style="fill:#fff;fill-rule:nonzero;"/><path d="M44.242,20.903l-2.867,0l0,10.295l3.09,0c2.629,0 5.125,-1.055 5.125,-5.2c0,-4.248 -2.6,-5.095 -5.348,-5.095Zm0.342,1.768c1.426,0 2.48,0.564 2.48,3.327c0,2.734 -0.98,3.432 -2.451,3.432l-0.802,0l0,-6.759l0.773,0Z" style="fill:#fff;fill-rule:nonzero;"/><path d="M57.359,20.903l-6.313,0l0,10.295l6.313,0l0,-1.753l-3.877,0l0,-2.629l3.164,0l0,-1.709l-3.164,0l0,-2.466l3.624,0l0.253,-1.738Z" style="fill:#fff;fill-rule:nonzero;"/><path d="M66.822,20.651c-2.734,0 -4.917,1.901 -4.917,5.392c0,3.521 1.574,5.407 4.679,5.407c1.352,0 2.689,-0.401 3.743,-1.084l0,-5.095l-3.936,0l0.238,1.723l1.336,0l0,2.332c-0.43,0.238 -0.891,0.342 -1.396,0.342c-1.426,0 -2.139,-0.921 -2.139,-3.625c0,-2.555 1.07,-3.625 2.51,-3.625c0.832,0 1.397,0.253 2.065,0.817l1.263,-1.322c-0.847,-0.742 -1.961,-1.262 -3.446,-1.262Z" style="fill:#fff;fill-rule:nonzero;"/><path d="M78.275,20.903l-6.313,0l0,10.295l6.313,0l0,-1.753l-3.877,0l0,-2.629l3.164,0l0,-1.709l-3.164,0l0,-2.466l3.624,0l0.253,-1.738Z" style="fill:#fff;fill-rule:nonzero;"/><path d="M83.088,20.651c-2.139,0 -3.714,1.158 -3.714,2.971c0,1.53 0.847,2.48 3.149,3.194c1.501,0.46 1.887,0.802 1.887,1.559c0,0.788 -0.624,1.263 -1.634,1.263c-1.025,0 -1.842,-0.371 -2.6,-1.01l-1.233,1.352c0.847,0.817 2.125,1.47 3.907,1.47c2.57,0 4.085,-1.337 4.085,-3.253c0,-1.901 -1.114,-2.704 -3.06,-3.327c-1.604,-0.506 -1.99,-0.773 -1.99,-1.427c0,-0.653 0.534,-1.01 1.381,-1.01c0.832,0 1.545,0.283 2.258,0.862l1.129,-1.322c-0.906,-0.862 -1.99,-1.322 -3.565,-1.322Z" style="fill:#fff;fill-rule:nonzero;"/><path d="M95.165,20.903l-7.873,0l0,1.872l2.659,0l0,8.423l2.436,0l0,-8.423l2.54,0l0.238,-1.872Z" style="fill:#fff;fill-rule:nonzero;"/><rect x="96.146" y="20.903" width="2.436" height="10.295" style="fill:#fff;fill-rule:nonzero;"/><path d="M105.831,16.996l-3.253,1.857l0.594,1.189l3.565,-1.293l-0.906,-1.753Zm-1.173,3.655c-2.897,0 -4.635,2.035 -4.635,5.392c0,3.432 1.738,5.407 4.635,5.407c2.911,0 4.649,-2.035 4.649,-5.407c0,-3.431 -1.738,-5.392 -4.649,-5.392Zm0,1.782c1.381,0 2.094,1.01 2.094,3.61c0,2.615 -0.698,3.625 -2.094,3.625c-1.337,0 -2.08,-1.01 -2.08,-3.625c0,-2.6 0.713,-3.61 2.08,-3.61Z" style="fill:#fff;fill-rule:nonzero;"/><path d="M118.696,20.903l-2.184,0l0,4.16c0,1.649 0.193,3 0.327,3.832l-3.046,-7.992l-3.03,0l0,10.295l2.169,0l0,-3.773c0,-1.902 -0.193,-3.269 -0.312,-4.204l2.971,7.977l3.105,0l0,-10.295Z" style="fill:#fff;fill-rule:nonzero;"/></g><g><path d="M31.26,18.161c-0.012,0.285 -0.033,0.57 -0.062,0.855l2.787,2.497c-0.222,0.947 -0.523,1.874 -0.9,2.771l-3.723,0.382c-0.489,0.844 -1.064,1.635 -1.715,2.361l0.787,3.658c-0.736,0.636 -1.525,1.209 -2.358,1.713l-3.236,-1.879c-0.891,0.395 -1.821,0.697 -2.775,0.902l-1.513,3.422c-0.298,0.025 -0.596,0.043 -0.894,0.052l0,-7.919c4.746,-0.28 8.553,-4.074 8.854,-8.815l4.748,0Z" style="fill:#38afe2;"/><path d="M2.951,18.161l4.748,0c0.299,4.706 4.053,8.48 8.75,8.809l0,7.922c-0.263,-0.011 -0.527,-0.027 -0.79,-0.049l-1.513,-3.422c-0.954,-0.205 -1.884,-0.507 -2.775,-0.902l-3.236,1.879c-0.833,-0.504 -1.622,-1.077 -2.358,-1.713l0.787,-3.658c-0.651,-0.726 -1.226,-1.517 -1.715,-2.361l-3.723,-0.382c-0.377,-0.897 -0.678,-1.824 -0.9,-2.771l2.787,-2.497c-0.029,-0.285 -0.05,-0.57 -0.062,-0.855Z" style="fill:#91c232;"/><path d="M17.658,0.218c0.298,0.01 0.596,0.027 0.894,0.052l1.513,3.423c0.954,0.204 1.884,0.506 2.775,0.902l3.236,-1.88c0.833,0.504 1.622,1.077 2.358,1.713l-0.787,3.659c0.651,0.726 1.226,1.517 1.715,2.36l3.723,0.382c0.377,0.897 0.678,1.824 0.9,2.772l-2.787,2.497c0.029,0.284 0.05,0.569 0.062,0.854l-4.748,0c-0.301,-4.74 -4.108,-8.535 -8.854,-8.815l0,-7.919Z" style="fill:#fcc21e;"/><path d="M16.449,0.222l0,7.922c-4.697,0.329 -8.451,4.102 -8.75,8.808l-4.748,0c0.012,-0.285 0.033,-0.57 0.062,-0.854l-2.787,-2.497c0.222,-0.948 0.523,-1.875 0.9,-2.772l3.723,-0.382c0.489,-0.843 1.064,-1.634 1.715,-2.36l-0.787,-3.659c0.736,-0.636 1.525,-1.209 2.358,-1.713l3.236,1.88c0.891,-0.396 1.821,-0.698 2.775,-0.902l1.513,-3.423c0.263,-0.022 0.527,-0.038 0.79,-0.048Z" style="fill:#f06835;"/></g></g></svg>