<?xml version="1.0" encoding="UTF-8" standalone="no"?><!DOCTYPE svg PUBLIC "-//W3C//DTD SVG 1.1//EN" "http://www.w3.org/Graphics/SVG/1.1/DTD/svg11.dtd"><svg width="100%" height="100%" viewBox="0 0 324 199" version="1.1" xmlns="http://www.w3.org/2000/svg" xmlns:xlink="http://www.w3.org/1999/xlink" xml:space="preserve" style="fill-rule:evenodd;clip-rule:evenodd;stroke-linejoin:round;stroke-miterlimit:1.41421;"><g><g><path d="M11.489,133.105c-5.477,0 -9.509,2.967 -9.509,7.607c0,3.918 2.168,6.352 8.064,8.178c3.841,1.179 4.83,2.054 4.83,3.994c0,2.016 -1.597,3.233 -4.184,3.233c-2.624,0 -4.716,-0.951 -6.656,-2.586l-3.157,3.461c2.168,2.092 5.439,3.766 10.004,3.766c6.58,0 10.46,-3.424 10.46,-8.33c0,-4.869 -2.853,-6.923 -7.836,-8.521c-4.108,-1.293 -5.097,-1.978 -5.097,-3.651c0,-1.674 1.369,-2.587 3.538,-2.587c2.13,0 3.955,0.723 5.781,2.206l2.891,-3.385c-2.32,-2.206 -5.097,-3.385 -9.129,-3.385Z" style="fill:#fff;fill-rule:nonzero;"/><rect x="24.764" y="133.752" width="6.238" height="26.359" style="fill:#fff;fill-rule:nonzero;"/><path d="M44.391,133.105c-5.478,0 -9.509,2.967 -9.509,7.607c0,3.918 2.168,6.352 8.063,8.178c3.842,1.179 4.831,2.054 4.831,3.994c0,2.016 -1.598,3.233 -4.184,3.233c-2.625,0 -4.717,-0.951 -6.656,-2.586l-3.157,3.461c2.168,2.092 5.439,3.766 10.003,3.766c6.581,0 10.46,-3.424 10.46,-8.33c0,-4.869 -2.852,-6.923 -7.835,-8.521c-4.108,-1.293 -5.097,-1.978 -5.097,-3.651c0,-1.674 1.369,-2.587 3.537,-2.587c2.13,0 3.956,0.723 5.782,2.206l2.891,-3.385c-2.321,-2.206 -5.097,-3.385 -9.129,-3.385Z" style="fill:#fff;fill-rule:nonzero;"/><path d="M75.315,133.752l-20.16,0l0,4.792l6.809,0l0,21.567l6.238,0l0,-21.567l6.504,0l0.609,-4.792Z" style="fill:#fff;fill-rule:nonzero;"/><path d="M93.991,133.752l-16.166,0l0,26.359l16.166,0l0,-4.488l-9.928,0l0,-6.733l8.102,0l0,-4.374l-8.102,0l0,-6.314l9.281,0l0.647,-4.45Z" style="fill:#fff;fill-rule:nonzero;"/><path d="M122.024,133.752l-7.912,0l-3.69,17.877l-3.955,-17.877l-7.874,0l-1.978,26.359l6.086,0l0.456,-10.232c0.152,-3.689 0.152,-6.961 -0.114,-10.84l4.336,18.295l5.896,0l4.07,-18.295c-0.19,3.271 -0.114,7.074 0.076,10.764l0.457,10.308l6.123,0l-1.977,-26.359Z" style="fill:#fff;fill-rule:nonzero;"/><path d="M141.879,160.111l6.618,0l-7.95,-26.359l-7.569,0l-7.95,26.359l6.467,0l1.331,-5.668l7.721,0l1.332,5.668Zm-7.988,-10.194l2.777,-11.639l2.776,11.639l-5.553,0Z" style="fill:#fff;fill-rule:nonzero;"/><rect x="159.452" y="133.752" width="6.238" height="26.359" style="fill:#fff;fill-rule:nonzero;"/><path d="M190.908,133.752l-5.592,0l0,10.65c0,4.222 0.495,7.683 0.837,9.813l-7.797,-20.463l-7.76,0l0,26.359l5.554,0l0,-9.661c0,-4.869 -0.495,-8.368 -0.799,-10.765l7.607,20.426l7.95,0l0,-26.359Z" style="fill:#fff;fill-rule:nonzero;"/><path d="M213.844,133.752l-20.159,0l0,4.792l6.808,0l0,21.567l6.238,0l0,-21.567l6.504,0l0.609,-4.792Z" style="fill:#fff;fill-rule:nonzero;"/><path d="M232.52,133.752l-16.166,0l0,26.359l16.166,0l0,-4.488l-9.928,0l0,-6.733l8.102,0l0,-4.374l-8.102,0l0,-6.314l9.281,0l0.647,-4.45Z" style="fill:#fff;fill-rule:nonzero;"/><path d="M247.735,133.105c-6.999,0 -12.591,4.869 -12.591,13.807c0,9.015 4.032,13.846 11.982,13.846c3.461,0 6.885,-1.027 9.585,-2.777l0,-13.047l-10.08,0l0.609,4.413l3.423,0l0,5.971c-1.103,0.609 -2.282,0.875 -3.575,0.875c-3.652,0 -5.477,-2.358 -5.477,-9.281c0,-6.542 2.738,-9.281 6.428,-9.281c2.13,0 3.575,0.647 5.287,2.092l3.233,-3.385c-2.168,-1.902 -5.021,-3.233 -8.824,-3.233Z" style="fill:#fff;fill-rule:nonzero;"/><path d="M274.969,160.111l7.037,0l-6.695,-11.221c3.423,-1.597 5.059,-3.651 5.059,-7.113c0,-5.477 -3.69,-8.025 -10.84,-8.025l-8.635,0l0,26.359l6.238,0l0,-10.08l2.435,0l5.401,10.08Zm-7.836,-21.985l2.244,0c3.081,0 4.565,1.103 4.565,3.651c0,2.777 -1.446,3.956 -4.184,3.956l-2.625,0l0,-7.607Z" style="fill:#fff;fill-rule:nonzero;"/><path d="M298.247,160.111l6.619,0l-7.95,-26.359l-7.569,0l-7.95,26.359l6.466,0l1.331,-5.668l7.722,0l1.331,5.668Zm-7.988,-10.194l2.777,-11.639l2.777,11.639l-5.554,0Z" style="fill:#fff;fill-rule:nonzero;"/><path d="M313.043,133.752l-6.238,0l0,26.359l15.862,0l0.646,-4.945l-10.27,0l0,-21.414Z" style="fill:#fff;fill-rule:nonzero;"/><path d="M70.56,171.994l-7.341,0l0,26.359l7.912,0c6.732,0 13.122,-2.7 13.122,-13.312c0,-10.879 -6.656,-13.047 -13.693,-13.047Zm0.875,4.526c3.651,0 6.352,1.446 6.352,8.521c0,6.998 -2.51,8.786 -6.276,8.786l-2.054,0l0,-17.307l1.978,0Z" style="fill:#fff;fill-rule:nonzero;"/><path d="M104.146,171.994l-16.165,0l0,26.359l16.165,0l0,-4.488l-9.927,0l0,-6.732l8.102,0l0,-4.375l-8.102,0l0,-6.314l9.281,0l0.646,-4.45Z" style="fill:#fff;fill-rule:nonzero;"/><path d="M128.376,171.347c-6.999,0 -12.59,4.869 -12.59,13.808c0,9.014 4.031,13.845 11.981,13.845c3.461,0 6.885,-1.027 9.585,-2.777l0,-13.046l-10.079,0l0.608,4.412l3.423,0l0,5.972c-1.103,0.608 -2.282,0.875 -3.575,0.875c-3.652,0 -5.477,-2.359 -5.477,-9.281c0,-6.543 2.738,-9.281 6.428,-9.281c2.13,0 3.575,0.646 5.287,2.092l3.233,-3.386c-2.168,-1.901 -5.021,-3.233 -8.824,-3.233Z" style="fill:#fff;fill-rule:nonzero;"/><path d="M157.702,171.994l-16.166,0l0,26.359l16.166,0l0,-4.488l-9.928,0l0,-6.732l8.102,0l0,-4.375l-8.102,0l0,-6.314l9.281,0l0.647,-4.45Z" style="fill:#fff;fill-rule:nonzero;"/><path d="M170.026,171.347c-5.478,0 -9.509,2.967 -9.509,7.608c0,3.917 2.168,6.352 8.063,8.178c3.842,1.179 4.831,2.054 4.831,3.993c0,2.016 -1.598,3.234 -4.184,3.234c-2.625,0 -4.717,-0.951 -6.656,-2.587l-3.157,3.461c2.168,2.092 5.439,3.766 10.003,3.766c6.58,0 10.46,-3.423 10.46,-8.33c0,-4.869 -2.853,-6.923 -7.835,-8.52c-4.108,-1.293 -5.097,-1.978 -5.097,-3.652c0,-1.673 1.369,-2.586 3.537,-2.586c2.13,0 3.956,0.722 5.782,2.206l2.891,-3.385c-2.321,-2.206 -5.097,-3.386 -9.129,-3.386Z" style="fill:#fff;fill-rule:nonzero;"/><path d="M200.949,171.994l-20.159,0l0,4.793l6.809,0l0,21.566l6.238,0l0,-21.566l6.504,0l0.608,-4.793Z" style="fill:#fff;fill-rule:nonzero;"/><rect x="203.46" y="171.994" width="6.238" height="26.359" style="fill:#fff;fill-rule:nonzero;"/><path d="M228.26,161.99l-8.33,4.755l1.521,3.043l9.129,-3.309l-2.32,-4.489Zm-3.005,9.357c-7.417,0 -11.868,5.211 -11.868,13.808c0,8.786 4.451,13.845 11.868,13.845c7.455,0 11.905,-5.211 11.905,-13.845c0,-8.787 -4.45,-13.808 -11.905,-13.808Zm0,4.565c3.537,0 5.363,2.586 5.363,9.243c0,6.694 -1.788,9.281 -5.363,9.281c-3.423,0 -5.325,-2.587 -5.325,-9.281c0,-6.657 1.826,-9.243 5.325,-9.243Z" style="fill:#fff;fill-rule:nonzero;"/><path d="M261.2,171.994l-5.592,0l0,10.65c0,4.222 0.495,7.684 0.837,9.814l-7.798,-20.464l-7.759,0l0,26.359l5.553,0l0,-9.661c0,-4.869 -0.494,-8.368 -0.798,-10.764l7.607,20.425l7.95,0l0,-26.359Z" style="fill:#fff;fill-rule:nonzero;"/></g><g><path d="M204.682,54.166c-0.036,0.856 -0.098,1.711 -0.187,2.565l8.368,7.496c-0.666,2.844 -1.57,5.628 -2.703,8.32l-11.176,1.146c-1.468,2.533 -3.194,4.908 -5.149,7.087l2.364,10.983c-2.211,1.91 -4.579,3.63 -7.078,5.142l-9.715,-5.642c-2.677,1.187 -5.468,2.094 -8.331,2.707l-4.543,10.275c-0.893,0.075 -1.788,0.128 -2.683,0.157l0,-23.773c14.248,-0.842 25.677,-12.232 26.578,-26.463l14.255,0Z" style="fill:#38afe2;"/><path d="M119.698,54.166l14.255,0c0.895,14.127 12.165,25.456 26.267,26.443l0,23.781c-0.791,-0.03 -1.582,-0.078 -2.371,-0.145l-4.544,-10.275c-2.862,-0.613 -5.654,-1.52 -8.33,-2.707l-9.715,5.642c-2.5,-1.512 -4.867,-3.232 -7.078,-5.142l2.363,-10.983c-1.955,-2.179 -3.68,-4.554 -5.148,-7.087l-11.176,-1.146c-1.133,-2.692 -2.038,-5.476 -2.704,-8.32l8.368,-7.496c-0.088,-0.854 -0.151,-1.709 -0.187,-2.565Z" style="fill:#91c232;"/><path d="M163.849,0.301c0.895,0.029 1.79,0.081 2.683,0.156l4.543,10.275c2.863,0.613 5.654,1.52 8.331,2.707l9.715,-5.642c2.499,1.512 4.867,3.232 7.078,5.142l-2.364,10.983c1.955,2.179 3.681,4.554 5.149,7.087l11.176,1.146c1.133,2.692 2.037,5.476 2.703,8.32l-8.368,7.496c0.089,0.854 0.151,1.709 0.187,2.566l-14.255,0c-0.901,-14.232 -12.33,-25.623 -26.578,-26.464l0,-23.772Z" style="fill:#fcc21e;"/><path d="M160.22,0.312l0,23.781c-14.102,0.987 -25.372,12.316 -26.267,26.444l-14.255,0c0.036,-0.857 0.099,-1.712 0.187,-2.566l-8.368,-7.496c0.666,-2.844 1.571,-5.628 2.704,-8.32l11.176,-1.146c1.468,-2.533 3.193,-4.908 5.148,-7.087l-2.363,-10.983c2.211,-1.91 4.578,-3.63 7.078,-5.142l9.715,5.642c2.676,-1.187 5.468,-2.094 8.33,-2.707l4.544,-10.275c0.789,-0.067 1.58,-0.115 2.371,-0.145Z" style="fill:#f06835;"/></g></g></svg>